# File created by Blade
# Date/Time:  Wed Jan 21 14:43:43 2015
#---------------------------------------------------------
:version 1.10
:name HOM
:units
  mass 1.0
  length 1.000000
  angle deg
:documentation
     Acclaim Skeleton File
:root
   axis xyz
   order TX TY TZ RX RY RZ
   position 0.000000 0.000000 0.000000
   orientation 0 0 0
:bonedata
   begin
      id 1
      name Spine_dum
      direction 0.000000 1.000000 0.000000
      length 7.067664
      axis 0.0 0.0 0.0 xyz
   end
   begin
      id 2
      name LeftUpLeg_dum
      direction 1.000000 0.000000 0.000000
      length 4.013002
      axis 0.0 0.0 0.0 xyz
   end
   begin
      id 3
      name RightUpLeg_dum
      direction -1.000000 0.000000 0.000000
      length 4.013002
      axis 0.0 0.0 0.0 xyz
   end
   begin
      id 4
      name Spine
      direction 0.000000 1.000000 0.000000
      length 0.000000
      axis 0.0 0.0 0.0 xyz
      dof rx ry rz
   end
   begin
      id 5
      name Spine_dum1
      direction 0.000000 1.000000 0.000000
      length 15.039886
      axis 0.0 0.0 0.0 xyz
   end
   begin
      id 6
      name Spine_dum2
      direction 0.000000 1.000000 0.000000
      length 10.530368
      axis 0.0 0.0 0.0 xyz
   end
   begin
      id 7
      name Spine_dum3
      direction 0.000000 1.000000 0.000000
      length 10.530368
      axis 0.0 0.0 0.0 xyz
   end
   begin
      id 8
      name Head
      direction 0.000000 1.000000 0.000000
      length 4.527550
      axis 0.0 0.0 0.0 xyz
      dof rx ry rz
   end
   begin
      id 9
      name LeftShoulder
      direction 1.000000 0.000000 0.000000
      length 7.028855
      axis 0.0 0.0 -90.0 xyz
      dof rx ry rz
   end
   begin
      id 10
      name LeftArm
      direction 1.000000 0.000000 0.000000
      length 10.797705
      axis 0.0 0.0 -90.0 xyz
      dof rx ry rz
   end
   begin
      id 11
      name LeftForeArm
      direction 1.000000 0.000000 0.000000
      length 7.907442
      axis 0.0 0.0 -90.0 xyz
      dof ry rz rx
   end
   begin
      id 12
      name LeftHand
      direction 0.000000 0.000000 0.000000
      length 0.000000
      axis 0.0 0.0 -90.0 xyz
      dof rx ry rz
   end
   begin
      id 13
      name LeftHand_dum1
      direction 0.000000 0.000000 0.000000
      length 0.000000
      axis 0.0 0.0 -90.0 xyz
   end
   begin
      id 14
      name LeftHand_dum2
      direction 1.000000 0.000000 0.000000
      length 3.937000
      axis 0.0 0.0 -90.0 xyz
   end
   begin
      id 15
      name LeftHandThumb1
      direction 0.000000 0.000000 1.000000
      length 3.937000
      axis 0.0 0.0 -90.0 xyz
      dof rx rz ry
   end
   begin
      id 16
      name RightShoulder
      direction -1.000000 0.000000 0.000000
      length 7.028855
      axis 0.0 0.0 90.0 xyz
      dof rx ry rz
   end
   begin
      id 17
      name RightArm
      direction -1.000000 0.000000 0.000000
      length 10.797705
      axis 0.0 0.0 90.0 xyz
      dof rx ry rz
   end
   begin
      id 18
      name RightForeArm
      direction -1.000000 0.000000 0.000000
      length 7.907442
      axis 0.0 0.0 90.0 xyz
      dof ry rz rx
   end
   begin
      id 19
      name RightHand
      direction 0.000000 0.000000 0.000000
      length 0.000000
      axis 0.0 0.0 90.0 xyz
      dof rx ry rz
   end
   begin
      id 20
      name RightHand_dum1
      direction 0.000000 0.000000 0.000000
      length 0.000000
      axis 0.0 0.0 90.0 xyz
   end
   begin
      id 21
      name RightHand_dum2
      direction -1.000000 0.000000 0.000000
      length 3.937000
      axis 0.0 0.0 90.0 xyz
   end
   begin
      id 22
      name RightHandThumb1
      direction 0.000000 0.000000 1.000000
      length 3.937000
      axis 0.0 0.0 90.0 xyz
      dof rx rz ry
   end
   begin
      id 23
      name LeftUpLeg
      direction 0.000000 -1.000000 0.000000
      length 16.899758
      axis 0.0 0.0 0.0 xyz
      dof rx ry rz
   end
   begin
      id 24
      name LeftLeg
      direction 0.000000 -1.000000 0.000000
      length 17.389183
      axis 0.0 0.0 0.0 xyz
      dof rx ry rz
   end
   begin
      id 25
      name LeftFoot
      direction 0.000000 -0.258819 0.965926
      length 4.924528
      axis 15.0 0.0 0.0 xyz
      dof rx ry rz
   end
   begin
      id 26
      name LeftToeBase
      direction 0.000000 0.000000 1.000000
      length 2.952750
      axis 0.0 0.0 0.0 xyz
      dof rx ry rz
   end
   begin
      id 27
      name RightUpLeg
      direction 0.000000 -1.000000 0.000000
      length 16.899758
      axis 0.0 0.0 0.0 xyz
      dof rx ry rz
   end
   begin
      id 28
      name RightLeg
      direction 0.000000 -1.000000 0.000000
      length 17.389183
      axis 0.0 0.0 0.0 xyz
      dof rx ry rz
   end
   begin
      id 29
      name RightFoot
      direction 0.000000 -0.258819 0.965926
      length 4.924528
      axis 15.0 0.0 0.0 xyz
      dof rx ry rz
   end
   begin
      id 30
      name RightToeBase
      direction 0.000000 0.000000 1.000000
      length 2.952750
      axis 0.0 0.0 0.0 xyz
      dof rx ry rz
   end
:hierarchy
   begin
      root Spine_dum LeftUpLeg_dum RightUpLeg_dum
      Spine_dum Spine
      LeftUpLeg_dum LeftUpLeg
      RightUpLeg_dum RightUpLeg
      Spine Spine_dum1 Spine_dum2 Spine_dum3
      Spine_dum1 Head
      Spine_dum2 LeftShoulder
      Spine_dum3 RightShoulder
      LeftShoulder LeftArm
      LeftArm LeftForeArm
      LeftForeArm LeftHand
      LeftHand LeftHand_dum1 LeftHand_dum2
      LeftHand_dum1 LeftHandThumb1
      RightShoulder RightArm
      RightArm RightForeArm
      RightForeArm RightHand
      RightHand RightHand_dum1 RightHand_dum2
      RightHand_dum1 RightHandThumb1
      LeftUpLeg LeftLeg
      LeftLeg LeftFoot
      LeftFoot LeftToeBase
      RightUpLeg RightLeg
      RightLeg RightFoot
      RightFoot RightToeBase
   end

# File created by Blade
# Date/Time:  Wed Jan 21 14:43:55 2015
# Frame Rate: 120.000 fps
#------------------------------------------------------
:FULLY-SPECIFIED
:DEGREES
1
root 18.447430 35.293744 -22.051511 -174.494811 -2.759197 179.979573
Spine -18.933149 -0.557316 -0.314067
Head 9.382093 -1.680225 1.723938
LeftShoulder -12.673685 -32.498335 20.758391
LeftArm 6.228780 5.136672 -7.984801
LeftForeArm 11.188827 -0.000000 -1.712712
LeftHand -7.821311 -0.000000 -5.087722
LeftHandThumb1 -26.253704 0.000000 33.147579
RightShoulder -12.402008 -3.259765 -9.714331
RightArm 9.926747 34.705827 9.350056
RightForeArm -37.848027 -0.000000 4.526505
RightHand -7.274023 0.000000 6.079845
RightHandThumb1 -24.326973 -0.000000 -32.862282
LeftUpLeg 4.464838 8.017657 0.915352
LeftLeg -6.814701 -0.000000 0.000000
LeftFoot -21.599748 28.470252 -11.957752
LeftToeBase 27.221244 -0.000000 -0.000000
RightUpLeg 3.572529 -8.040824 -3.748609
RightLeg -2.286753 -0.000000 0.000000
RightFoot -23.307412 -23.596091 16.301498
RightToeBase 25.383342 -0.000000 -0.000000
2
root 18.455178 35.290947 -22.066886 -174.551031 -2.704180 179.981876
Spine -18.947395 -0.521019 -0.303514
Head 9.481292 -1.733011 1.665438
LeftShoulder -12.746970 -32.506974 20.754813
LeftArm 6.238171 5.215316 -7.953500
LeftForeArm 11.180561 0.000000 -1.726997
LeftHand -7.814046 -0.000000 -5.057542
LeftHandThumb1 -26.253704 0.000000 33.147579
RightShoulder -12.367046 -3.167639 -9.758205
RightArm 9.718143 34.111294 9.105069
RightForeArm -37.199232 -0.000000 4.609042
RightHand -7.223695 -0.000000 6.165762
RightHandThumb1 -24.326973 -0.000000 -32.862282
LeftUpLeg 4.552244 8.054860 0.936036
LeftLeg -6.809918 -0.000000 0.000000
LeftFoot -21.642755 28.483157 -11.989606
LeftToeBase 27.208355 -0.000000 -0.000000
RightUpLeg 3.661665 -8.026246 -3.752417
RightLeg -2.318261 -0.000000 0.000000
RightFoot -23.304894 -23.567481 16.279972
RightToeBase 25.451078 -0.000000 -0.000000
3
root 18.463860 35.288486 -22.082541 -174.606086 -2.644514 179.989189
Spine -18.960806 -0.467887 -0.298354
Head 9.566534 -1.783827 1.652005
LeftShoulder -12.807448 -32.518311 20.753697
LeftArm 6.239941 5.274278 -7.931212
LeftForeArm 11.169761 -0.000000 -1.716270
LeftHand -7.851932 0.000000 -5.052545
LeftHandThumb1 -26.253704 0.000000 33.147579
RightShoulder -12.364200 -3.126695 -9.792643
RightArm 9.666766 34.057604 9.044355
RightForeArm -37.127442 -0.000000 4.621355
RightHand -7.312945 -0.000000 6.223158
RightHandThumb1 -24.326973 -0.000000 -32.862282
LeftUpLeg 4.634710 8.104489 0.964313
LeftLeg -6.801388 -0.000000 0.000000
LeftFoot -21.665888 28.507508 -11.975672
LeftToeBase 27.210546 -0.000000 -0.000000
RightUpLeg 3.744190 -7.993012 -3.745158
RightLeg -2.342985 -0.000000 0.000000
RightFoot -23.338386 -23.531152 16.301894
RightToeBase 25.381108 -0.000000 -0.000000
4
root 18.471787 35.285841 -22.096602 -174.656126 -2.590874 179.986608
Spine -18.967068 -0.447362 -0.302939
Head 9.628794 -1.805722 1.653426
LeftShoulder -12.908693 -32.495080 20.793840
LeftArm 6.249055 5.249857 -7.939692
LeftForeArm 11.231862 -0.000000 -1.711271
LeftHand -7.867894 -0.000000 -5.054720
LeftHandThumb1 -26.253704 0.000000 33.147579
RightShoulder -12.371760 -3.156684 -9.807053
RightArm 9.690354 34.063173 9.039303
RightForeArm -37.120792 -0.000000 4.590789
RightHand -7.305627 0.000000 6.182593
RightHandThumb1 -24.326973 -0.000000 -32.862282
LeftUpLeg 4.706321 8.123626 0.979500
LeftLeg -6.777772 -0.000000 0.000000
LeftFoot -21.724439 28.529559 -12.006395
LeftToeBase 27.275990 -0.000000 -0.000000
RightUpLeg 3.814022 -7.991875 -3.753466
RightLeg -2.354213 -0.000000 0.000000
RightFoot -23.342185 -23.444884 16.322764
RightToeBase 25.318573 -0.000000 -0.000000
5
root 18.479507 35.283329 -22.107622 -174.689962 -2.541398 179.981837
Spine -18.978319 -0.420963 -0.319032
Head 9.673588 -1.850409 1.667726
LeftShoulder -12.995905 -32.470851 20.833170
LeftArm 6.256021 5.199204 -7.953308
LeftForeArm 11.291388 0.000000 -1.729143
LeftHand -7.886559 -0.000000 -4.996666
LeftHandThumb1 -26.253704 0.000000 33.147579
RightShoulder -12.405579 -3.167119 -9.823701
RightArm 9.838169 34.496494 9.190516
RightForeArm -37.532794 -0.000000 4.515369
RightHand -7.236330 -0.000000 6.135872
RightHandThumb1 -24.326973 -0.000000 -32.862282
LeftUpLeg 4.749479 8.142775 0.989493
LeftLeg -6.747263 -0.000000 0.000000
LeftFoot -21.760076 28.549206 -12.011931
LeftToeBase 27.267940 -0.000000 -0.000000
RightUpLeg 3.860217 -7.975446 -3.759479
RightLeg -2.353662 -0.000000 0.000000
RightFoot -23.366669 -23.458339 16.252784
RightToeBase 25.469058 -0.000000 -0.000000
6
root 18.487495 35.281359 -22.118100 -174.734983 -2.499917 179.980787
Spine -18.974301 -0.406616 -0.314828
Head 9.730101 -1.868596 1.644043
LeftShoulder -13.072119 -32.431761 20.839039
LeftArm 6.255020 5.151384 -7.944157
LeftForeArm 11.347175 -0.000000 -1.745151
LeftHand -7.900147 -0.000000 -5.047553
LeftHandThumb1 -26.253704 0.000000 33.147579
RightShoulder -12.417539 -3.157849 -9.847790
RightArm 9.831377 34.354329 9.153631
RightForeArm -37.361172 -0.000000 4.527347
RightHand -7.229692 0.000000 6.190666
RightHandThumb1 -24.326973 -0.000000 -32.862282
LeftUpLeg 4.800297 8.164426 1.005316
LeftLeg -6.713825 -0.000000 0.000000
LeftFoot -21.808650 28.565987 -12.030532
LeftToeBase 27.303365 -0.000000 -0.000000
RightUpLeg 3.920905 -7.974196 -3.765684
RightLeg -2.361775 -0.000000 0.000000
RightFoot -23.373944 -23.401529 16.221996
RightToeBase 25.403418 -0.000000 -0.000000
7
root 18.495142 35.279619 -22.128094 -174.781519 -2.455919 179.978510
Spine -18.962363 -0.386222 -0.313206
Head 9.761855 -1.877046 1.630531
LeftShoulder -13.138472 -32.405438 20.844781
LeftArm 6.241183 5.126409 -7.936905
LeftForeArm 11.371597 -0.000000 -1.751515
LeftHand -7.910165 -0.000000 -5.085395
LeftHandThumb1 -26.253704 0.000000 33.147579
RightShoulder -12.446574 -3.165906 -9.851314
RightArm 9.933437 34.502894 9.196876
RightForeArm -37.479893 -0.000000 4.430915
RightHand -7.257665 0.000000 6.149087
RightHandThumb1 -24.326973 -0.000000 -32.862282
LeftUpLeg 4.853337 8.184435 1.018832
LeftLeg -6.681989 -0.000000 0.000000
LeftFoot -21.850379 28.595764 -12.045715
LeftToeBase 27.299490 -0.000000 -0.000000
RightUpLeg 3.978045 -7.972523 -3.770395
RightLeg -2.367525 -0.000000 0.000000
RightFoot -23.395911 -23.335308 16.234675
RightToeBase 25.428367 -0.000000 -0.000000
